<svg width="83" height="89" viewBox="0 0 83 89" fill="none" xmlns="http://www.w3.org/2000/svg">
<path d="M67.2317 82.4572H48.0656H14.772C7.96883 82.4572 4.09033 78.945 4.09033 72.7844V35.459C4.09034 32.337 5.53516 29.3578 8.07377 27.2454L34.0519 7.16211C38.7647 3.24046 44.8527 3.24058 49.5654 7.16238L74.7859 27.2454C77.3243 29.3578 78.769 32.3369 78.769 35.4587V41.0647V49.2024V72.2826C78.769 78.7388 73.3904 82.4572 67.2317 82.4572Z" stroke="#FF6464" stroke-width="8"/>
<path d="M52.1836 12.6572C50.5267 12.6572 49.1836 14.0004 49.1836 15.6572V33.2888V39.2888V39.8261V53.918H33.6782H27.6782H10.048C8.39109 53.918 7.04795 55.2611 7.04795 56.918C7.04795 58.5748 8.39109 59.918 10.048 59.918H27.6782V77.5449C27.6782 79.2018 29.0214 80.5449 30.6782 80.5449C32.3351 80.5449 33.6782 79.2018 33.6782 77.5449V59.918H51.3067C51.4583 59.918 51.6072 59.9067 51.7528 59.885C51.8935 59.9053 52.0373 59.9157 52.1836 59.9157C53.8404 59.9157 55.1836 58.5726 55.1836 56.9157V39.2888H72.8118C74.4686 39.2888 75.8118 37.9457 75.8118 36.2888C75.8118 34.6319 74.4686 33.2888 72.8118 33.2888H55.1836V15.6572C55.1836 14.0004 53.8404 12.6572 52.1836 12.6572Z" fill="#FF6464" fill-opacity="0.5"/>
</svg>
