<svg width="24" height="24" viewBox="0 0 24 24" fill="none" xmlns="http://www.w3.org/2000/svg">
<path d="M2.1573 19.6854C0.80899 18.2022 0 16.5842 0 13.8876C0 9.16852 3.37079 4.98874 8.08989 2.83144L9.30337 4.58425C4.85393 7.01121 3.91011 10.1123 3.64045 12.1348C4.31461 11.7303 5.25843 11.5955 6.20225 11.7303C8.62921 12 10.5169 13.8876 10.5169 16.4494C10.5169 17.6629 9.97753 18.8764 9.16854 19.8202C8.22472 20.764 7.14607 21.1685 5.79775 21.1685C4.31461 21.1685 2.96629 20.4944 2.1573 19.6854ZM15.6404 19.6854C14.2921 18.2022 13.4831 16.5842 13.4831 13.8876C13.4831 9.16852 16.8539 4.98874 21.573 2.83144L22.7865 4.58425C18.3371 7.01121 17.3933 10.1123 17.1236 12.1348C17.7978 11.7303 18.7416 11.5955 19.6854 11.7303C22.1124 12 24 14.0225 24 16.4494C24 17.6629 23.4607 18.8764 22.6517 19.8202C21.7079 20.764 20.6292 21.1685 19.2809 21.1685C17.7978 21.1685 16.4494 20.4944 15.6404 19.6854Z" fill="#FF6464"/>
</svg>
