<svg width="383" height="123" viewBox="0 0 383 123" fill="none" xmlns="http://www.w3.org/2000/svg">
<path d="M122.584 25.82V87.122H154.612V97.22H110.446V25.82H122.584ZM181.668 97.934C176.772 97.934 172.386 96.88 168.51 94.772C164.634 92.596 161.608 89.57 159.432 85.694C157.256 81.75 156.168 77.126 156.168 71.822C156.168 66.45 157.29 61.792 159.534 57.848C161.778 53.904 164.872 50.878 168.816 48.77C172.76 46.594 177.146 45.506 181.974 45.506C186.87 45.506 191.256 46.594 195.132 48.77C199.076 50.878 202.204 53.904 204.516 57.848C206.828 61.724 207.984 66.314 207.984 71.618C207.984 76.99 206.794 81.648 204.414 85.592C202.102 89.536 198.94 92.596 194.928 94.772C190.984 96.88 186.564 97.934 181.668 97.934ZM181.566 87.632C183.946 87.632 186.19 87.054 188.298 85.898C190.474 84.742 192.242 83.008 193.602 80.696C194.962 78.316 195.642 75.29 195.642 71.618C195.642 68.082 194.996 65.158 193.704 62.846C192.412 60.466 190.712 58.698 188.604 57.542C186.496 56.386 184.218 55.808 181.77 55.808C179.39 55.808 177.18 56.386 175.14 57.542C173.168 58.698 171.57 60.466 170.346 62.846C169.122 65.158 168.51 68.15 168.51 71.822C168.51 75.358 169.088 78.316 170.244 80.696C171.468 83.008 173.066 84.742 175.038 85.898C177.01 87.054 179.186 87.632 181.566 87.632ZM244.083 97.22L243.063 90.998C241.431 93.174 239.493 94.84 237.249 95.996C235.005 97.152 232.013 97.73 228.273 97.73C224.737 97.73 221.677 97.152 219.093 95.996C216.509 94.772 214.503 93.106 213.075 90.998C211.715 88.822 211.035 86.306 211.035 83.45C211.035 79.166 212.599 75.596 215.727 72.74C218.923 69.816 223.581 68.014 229.701 67.334L243.063 65.906V61.928C243.063 60.296 242.349 58.834 240.921 57.542C239.493 56.182 237.215 55.502 234.087 55.502C231.367 55.502 228.987 56.182 226.947 57.542C224.975 58.834 223.649 60.806 222.969 63.458L212.973 59.786C214.265 55.298 216.815 51.796 220.623 49.28C224.499 46.764 229.191 45.506 234.699 45.506C241.363 45.506 246.361 47.172 249.693 50.504C253.025 53.836 254.691 58.086 254.691 63.254V97.22H244.083ZM243.063 74.78L230.823 76.31C228.239 76.65 226.301 77.398 225.009 78.554C223.717 79.642 223.071 81.036 223.071 82.736C223.071 84.3 223.683 85.66 224.907 86.816C226.199 87.904 227.933 88.448 230.109 88.448C232.897 88.448 235.243 87.938 237.147 86.918C239.119 85.898 240.581 84.436 241.533 82.532C242.553 80.628 243.063 78.282 243.063 75.494V74.78ZM262.376 46.22H272.78L273.596 51.218C275.296 49.45 277.302 48.056 279.614 47.036C281.994 46.016 284.544 45.506 287.264 45.506C291.276 45.506 294.71 46.356 297.566 48.056C300.49 49.688 302.734 52.136 304.298 55.4C305.862 58.596 306.644 62.608 306.644 67.436V97.22H295.118V68.966C295.118 64.682 294.234 61.452 292.466 59.276C290.766 57.1 288.182 56.012 284.714 56.012C281.178 56.012 278.492 57.134 276.656 59.378C274.82 61.554 273.902 64.784 273.902 69.068V97.22H262.376V46.22ZM314.252 23.78H325.778V97.22H314.252V23.78ZM369.038 46.22H381.176L351.188 117.62H339.764L348.944 95.792L329.054 46.22H341.804L355.268 82.328L369.038 46.22Z" fill="white"/>
<path d="M68.2317 95.6772H49.0656H15.772C8.96883 95.6772 5.09033 92.165 5.09033 86.0044V48.6789C5.09034 45.5569 6.53516 42.5778 9.07377 40.4654L35.0519 20.3821C39.7647 16.4604 45.8527 16.4605 50.5654 20.3823L75.7859 40.4654C78.3243 42.5778 79.769 45.5568 79.769 48.6787V54.2847V62.4223V85.5026C79.769 91.9587 74.3904 95.6772 68.2317 95.6772Z" stroke="white" stroke-width="8"/>
<path d="M53.1836 25.8772C51.5267 25.8772 50.1836 27.2203 50.1836 28.8772V46.5088V52.5088V53.046V67.138H34.6782H28.6782H11.048C9.39109 67.138 8.04795 68.4811 8.04795 70.138C8.04795 71.7948 9.39109 73.138 11.048 73.138H28.6782V90.7649C28.6782 92.4217 30.0214 93.7649 31.6782 93.7649C33.3351 93.7649 34.6782 92.4217 34.6782 90.7649V73.138H52.3067C52.4583 73.138 52.6072 73.1267 52.7528 73.105C52.8935 73.1252 53.0373 73.1357 53.1836 73.1357C54.8404 73.1357 56.1836 71.7926 56.1836 70.1357V52.5088H73.8118C75.4686 52.5088 76.8118 51.1656 76.8118 49.5088C76.8118 47.8519 75.4686 46.5088 73.8118 46.5088H56.1836V28.8772C56.1836 27.2203 54.8404 25.8772 53.1836 25.8772Z" fill="white" fill-opacity="0.6"/>
</svg>
