<svg width="383" height="122" viewBox="0 0 383 122" fill="none" xmlns="http://www.w3.org/2000/svg">
<path d="M122.584 25.6V86.902H154.612V97H110.446V25.6H122.584ZM181.668 97.714C176.772 97.714 172.386 96.66 168.51 94.552C164.634 92.376 161.608 89.35 159.432 85.474C157.256 81.53 156.168 76.906 156.168 71.602C156.168 66.23 157.29 61.572 159.534 57.628C161.778 53.684 164.872 50.658 168.816 48.55C172.76 46.374 177.146 45.286 181.974 45.286C186.87 45.286 191.256 46.374 195.132 48.55C199.076 50.658 202.204 53.684 204.516 57.628C206.828 61.504 207.984 66.094 207.984 71.398C207.984 76.77 206.794 81.428 204.414 85.372C202.102 89.316 198.94 92.376 194.928 94.552C190.984 96.66 186.564 97.714 181.668 97.714ZM181.566 87.412C183.946 87.412 186.19 86.834 188.298 85.678C190.474 84.522 192.242 82.788 193.602 80.476C194.962 78.096 195.642 75.07 195.642 71.398C195.642 67.862 194.996 64.938 193.704 62.626C192.412 60.246 190.712 58.478 188.604 57.322C186.496 56.166 184.218 55.588 181.77 55.588C179.39 55.588 177.18 56.166 175.14 57.322C173.168 58.478 171.57 60.246 170.346 62.626C169.122 64.938 168.51 67.93 168.51 71.602C168.51 75.138 169.088 78.096 170.244 80.476C171.468 82.788 173.066 84.522 175.038 85.678C177.01 86.834 179.186 87.412 181.566 87.412ZM244.083 97L243.063 90.778C241.431 92.954 239.493 94.62 237.249 95.776C235.005 96.932 232.013 97.51 228.273 97.51C224.737 97.51 221.677 96.932 219.093 95.776C216.509 94.552 214.503 92.886 213.075 90.778C211.715 88.602 211.035 86.086 211.035 83.23C211.035 78.946 212.599 75.376 215.727 72.52C218.923 69.596 223.581 67.794 229.701 67.114L243.063 65.686V61.708C243.063 60.076 242.349 58.614 240.921 57.322C239.493 55.962 237.215 55.282 234.087 55.282C231.367 55.282 228.987 55.962 226.947 57.322C224.975 58.614 223.649 60.586 222.969 63.238L212.973 59.566C214.265 55.078 216.815 51.576 220.623 49.06C224.499 46.544 229.191 45.286 234.699 45.286C241.363 45.286 246.361 46.952 249.693 50.284C253.025 53.616 254.691 57.866 254.691 63.034V97H244.083ZM243.063 74.56L230.823 76.09C228.239 76.43 226.301 77.178 225.009 78.334C223.717 79.422 223.071 80.816 223.071 82.516C223.071 84.08 223.683 85.44 224.907 86.596C226.199 87.684 227.933 88.228 230.109 88.228C232.897 88.228 235.243 87.718 237.147 86.698C239.119 85.678 240.581 84.216 241.533 82.312C242.553 80.408 243.063 78.062 243.063 75.274V74.56ZM262.376 46H272.78L273.596 50.998C275.296 49.23 277.302 47.836 279.614 46.816C281.994 45.796 284.544 45.286 287.264 45.286C291.276 45.286 294.71 46.136 297.566 47.836C300.49 49.468 302.734 51.916 304.298 55.18C305.862 58.376 306.644 62.388 306.644 67.216V97H295.118V68.746C295.118 64.462 294.234 61.232 292.466 59.056C290.766 56.88 288.182 55.792 284.714 55.792C281.178 55.792 278.492 56.914 276.656 59.158C274.82 61.334 273.902 64.564 273.902 68.848V97H262.376V46ZM314.252 23.56H325.778V97H314.252V23.56ZM369.038 46H381.176L351.188 117.4H339.764L348.944 95.572L329.054 46H341.804L355.268 82.108L369.038 46Z" fill="black"/>
<path d="M68.2317 95.4572H49.0656H15.772C8.96883 95.4572 5.09033 91.945 5.09033 85.7844V48.459C5.09034 45.337 6.53516 42.3578 9.07377 40.2454L35.0519 20.1621C39.7647 16.2405 45.8527 16.2406 50.5654 20.1624L75.7859 40.2454C78.3243 42.3578 79.769 45.3369 79.769 48.4587V54.0647V62.2024V85.2826C79.769 91.7388 74.3904 95.4572 68.2317 95.4572Z" stroke="black" stroke-width="8"/>
<path d="M53.1836 25.6572C51.5267 25.6572 50.1836 27.0004 50.1836 28.6572V46.2888V52.2888V52.8261V66.918H34.6782H28.6782H11.048C9.39109 66.918 8.04795 68.2611 8.04795 69.918C8.04795 71.5748 9.39109 72.918 11.048 72.918H28.6782V90.5449C28.6782 92.2018 30.0214 93.5449 31.6782 93.5449C33.3351 93.5449 34.6782 92.2018 34.6782 90.5449V72.918H52.3067C52.4583 72.918 52.6072 72.9067 52.7528 72.885C52.8935 72.9053 53.0373 72.9157 53.1836 72.9157C54.8404 72.9157 56.1836 71.5726 56.1836 69.9157V52.2888H73.8118C75.4686 52.2888 76.8118 50.9457 76.8118 49.2888C76.8118 47.6319 75.4686 46.2888 73.8118 46.2888H56.1836V28.6572C56.1836 27.0004 54.8404 25.6572 53.1836 25.6572Z" fill="black" fill-opacity="0.2"/>
</svg>
