<svg width="178" height="379" viewBox="0 0 178 379" fill="none" xmlns="http://www.w3.org/2000/svg">
<g clip-path="url(#clip0_3516_1053)">
<path d="M111.067 351.006H29.5165H-112.146C-141.093 351.006 -157.596 336.062 -157.596 309.849V151.031C-157.596 137.747 -151.448 125.071 -140.647 116.083L-30.1112 30.6292C-10.0583 13.9428 15.8457 13.9433 35.8979 30.6304L143.21 116.083C154.011 125.071 160.158 137.746 160.158 151.03V174.883V209.508V307.714C160.158 335.184 137.272 351.006 111.067 351.006Z" stroke="white" stroke-opacity="0.5" stroke-width="4"/>
<path d="M78.779 312.262H21.2125H-78.7871C-99.2208 312.262 -110.87 301.713 -110.87 283.209V171.1C-110.87 161.722 -106.53 152.774 -98.9056 146.43L-20.8787 86.1081C-6.72336 74.3292 11.5623 74.3296 25.7171 86.1089L101.469 146.43C109.093 152.774 113.432 161.722 113.432 171.099V187.937V212.379V281.702C113.432 301.093 97.2772 312.262 78.779 312.262Z" stroke="white" stroke-opacity="0.5" stroke-width="4"/>
</g>
<defs>
<clipPath id="clip0_3516_1053">
<rect width="178" height="379" fill="white"/>
</clipPath>
</defs>
</svg>
