<svg width="175" height="379" viewBox="0 0 175 379" fill="none" xmlns="http://www.w3.org/2000/svg">
<g clip-path="url(#clip0_3516_1056)">
<path d="M286.067 351.006H204.516H62.8539C33.9068 351.006 17.4041 336.062 17.4041 309.849V151.031C17.4041 137.747 23.5517 125.071 34.3534 116.083L144.889 30.6292C164.942 13.9428 190.846 13.9433 210.898 30.6304L318.21 116.083C329.011 125.071 335.158 137.746 335.158 151.03V174.883V209.508V307.714C335.158 335.184 312.272 351.006 286.067 351.006Z" stroke="#FF6464" stroke-opacity="0.5" stroke-width="4"/>
<path d="M253.779 312.262H196.212H96.2129C75.7792 312.262 64.1299 301.713 64.1299 283.209V171.1C64.1299 161.722 68.4695 152.774 76.0944 146.43L154.121 86.1081C168.277 74.3292 186.562 74.3296 200.717 86.1089L276.469 146.43C284.093 152.774 288.432 161.722 288.432 171.099V187.937V212.379V281.702C288.432 301.093 272.277 312.262 253.779 312.262Z" stroke="#FF6464" stroke-opacity="0.5" stroke-width="4"/>
</g>
<defs>
<clipPath id="clip0_3516_1056">
<rect width="175" height="379" fill="white"/>
</clipPath>
</defs>
</svg>
