<svg width="51" height="50" viewBox="0 0 51 50" fill="none" xmlns="http://www.w3.org/2000/svg">
<path d="M34.875 18.7797V12.5C34.875 10.0136 33.8873 7.62903 32.1291 5.87087C30.371 4.11272 27.9864 3.125 25.5 3.125C23.0136 3.125 20.629 4.11272 18.8709 5.87087C17.1127 7.62903 16.125 10.0136 16.125 12.5V18.7797C13.5015 20.7473 11.5635 23.4906 10.5857 26.6208C9.60791 29.7511 9.63978 33.1096 10.6768 36.2207C11.7139 39.3319 13.7035 42.0378 16.3639 43.9553C19.0243 45.8729 22.2206 46.9047 25.5 46.9047C28.7794 46.9047 31.9757 45.8729 34.6361 43.9553C37.2965 42.0378 39.2861 39.3319 40.3232 36.2207C41.3602 33.1096 41.3921 29.7511 40.4143 26.6208C39.4365 23.4906 37.4985 20.7473 34.875 18.7797ZM27.0625 32.3734V34.375C27.0625 34.7894 26.8979 35.1868 26.6049 35.4799C26.3118 35.7729 25.9144 35.9375 25.5 35.9375C25.0856 35.9375 24.6882 35.7729 24.3951 35.4799C24.1021 35.1868 23.9375 34.7894 23.9375 34.375V32.3797C23.3417 32.0357 22.8761 31.5048 22.6129 30.8692C22.3496 30.2337 22.3034 29.529 22.4815 28.8645C22.6595 28.2001 23.0519 27.6129 23.5976 27.1941C24.1434 26.7753 24.8121 26.5484 25.5 26.5484C26.1879 26.5484 26.8566 26.7753 27.4024 27.1941C27.9481 27.6129 28.3405 28.2001 28.5185 28.8645C28.6966 29.529 28.6504 30.2337 28.3871 30.8692C28.1239 31.5048 27.6583 32.0357 27.0625 32.3797V32.3734ZM31.75 16.9328C29.7803 16.0662 27.6519 15.6188 25.5 15.6188C23.3481 15.6188 21.2197 16.0662 19.25 16.9328V12.5C19.25 10.8424 19.9085 9.25268 21.0806 8.08058C22.2527 6.90848 23.8424 6.25 25.5 6.25C27.1576 6.25 28.7473 6.90848 29.9194 8.08058C31.0915 9.25268 31.75 10.8424 31.75 12.5V16.9328Z" fill="black"/>
</svg>
